<svg width="108" height="44" viewBox="0 0 108 44" fill="none" xmlns="http://www.w3.org/2000/svg">
<path d="M28.2862 24.7222C27.116 25.2586 25.9775 25.8611 24.8765 26.5267C24.1164 27.0897 23.3953 27.7029 22.718 28.3622C21.2652 26.767 19.4461 25.5448 17.4157 24.8C17.2519 24.7429 17.0777 24.7217 16.9049 24.7378C16.7321 24.7539 16.5649 24.807 16.4147 24.8933C16.0393 25.3289 16.4147 25.6244 16.8213 25.8578C17.6188 26.3236 18.3092 26.9505 18.848 27.698C19.3868 28.4455 19.7621 29.2971 19.9495 30.1978C20.4716 33.4318 20.3815 36.7344 19.6836 39.9356C19.5072 40.7332 19.1566 41.4826 18.6565 42.1304C18.1565 42.7783 17.5193 43.3088 16.79 43.6844C17.8392 43.8458 18.911 43.7822 19.9334 43.4978C20.9558 43.2134 21.9052 42.7149 22.718 42.0356C23.4854 42.7058 24.3864 43.2075 25.362 43.5077C26.3377 43.8079 27.3661 43.9 28.38 43.7778C28.38 43.7778 28.38 43.6222 28.38 43.6067C27.6164 43.1363 26.9675 42.5029 26.4806 41.7522C25.9936 41.0015 25.6808 40.1525 25.5647 39.2667C25.1113 36.4418 25.0482 33.5686 25.377 30.7267C25.4817 29.8066 25.7917 28.9214 26.2841 28.1356C26.7766 27.3498 27.4392 26.6832 28.2236 26.1844C28.4428 26.0701 28.6432 25.9232 28.818 25.7489C28.9567 25.5157 29.062 25.2644 29.1308 25.0022C28.8336 24.8778 28.4739 24.6289 28.2862 24.7222Z" fill="black"/>
<path d="M32.4624 20.1178C30.2257 18.7956 26.6752 20.1178 26.2059 22.5289C26.7698 22.8168 27.3886 22.9828 28.0216 23.0158C28.6546 23.0488 29.2874 22.948 29.8784 22.7203C30.4695 22.4925 31.0053 22.1428 31.4507 21.6943C31.896 21.2457 32.2408 20.7084 32.4624 20.1178Z" fill="black"/>
<path d="M19.2457 22.5444C18.7139 20.1644 15.4293 18.8733 12.9893 20.1022C13.2157 20.6894 13.5627 21.2233 14.008 21.6697C14.4534 22.1161 14.9874 22.4654 15.5761 22.6952C16.1647 22.9249 16.795 23.0302 17.4268 23.0043C18.0587 22.9783 18.6781 22.8217 19.2457 22.5444Z" fill="black"/>
<path d="M31.3831 24.1933C31.6907 24.6687 32.1024 25.0686 32.5874 25.3634C33.0724 25.6581 33.6181 25.8399 34.1837 25.8953C34.7493 25.9507 35.3202 25.8781 35.8537 25.683C36.3871 25.488 36.8693 25.1755 37.2641 24.7689C36.9627 24.2862 36.5535 23.8789 36.0684 23.5787C35.5832 23.2785 35.0351 23.0935 34.4664 23.0378C33.8978 22.9822 33.3239 23.0574 32.7892 23.2578C32.2545 23.4582 31.7734 23.7783 31.3831 24.1933Z" fill="black"/>
<path d="M12.6608 17.1933C12.5094 16.6523 12.2367 16.1525 11.8632 15.7313C11.4897 15.3102 11.0252 14.9786 10.5044 14.7615C9.98363 14.5445 9.42019 14.4476 8.85637 14.4781C8.29256 14.5086 7.74302 14.6658 7.24902 14.9378C7.39235 15.4841 7.66046 15.9901 8.03248 16.4166C8.4045 16.8431 8.87042 17.1785 9.394 17.3967C9.91758 17.6149 10.4847 17.7101 11.0513 17.6748C11.6179 17.6396 12.1687 17.4748 12.6608 17.1933Z" fill="black"/>
<path d="M14.0529 24.2089C13.6669 23.7938 13.1905 23.4722 12.6602 23.2687C12.1299 23.0651 11.5598 22.9851 10.9936 23.0346C10.4273 23.0842 9.88001 23.262 9.3936 23.5546C8.9072 23.8471 8.49461 24.2465 8.18748 24.7222C8.57797 25.129 9.05547 25.4431 9.58461 25.6414C10.1137 25.8397 10.681 25.9171 11.2442 25.8678C11.8075 25.8185 12.3524 25.6438 12.8386 25.3566C13.3248 25.0695 13.7398 24.6772 14.0529 24.2089Z" fill="black"/>
<path d="M13.6462 12.6667C13.6827 12.1091 13.5901 11.5506 13.3757 11.0342C13.1612 10.5177 12.8306 10.057 12.4092 9.6875C11.9878 9.31796 11.4868 9.04942 10.9448 8.9025C10.4027 8.75559 9.83401 8.7342 9.28235 8.84C9.24271 9.3984 9.33309 9.95837 9.54648 10.4764C9.75987 10.9944 10.0905 11.4564 10.5127 11.8267C10.9349 12.1969 11.4373 12.4653 11.9807 12.611C12.5242 12.7566 13.0941 12.7757 13.6462 12.6667Z" fill="black"/>
<path d="M38.2339 14.9844C37.7447 14.7025 37.1972 14.5357 36.6332 14.4966C36.0692 14.4574 35.5037 14.5472 34.9799 14.7588C34.4562 14.9705 33.988 15.2985 33.6113 15.7178C33.2346 16.137 32.9593 16.6364 32.8065 17.1778C33.295 17.4629 33.8429 17.6323 34.4078 17.673C34.9727 17.7138 35.5394 17.6246 36.0642 17.4126C36.5889 17.2005 37.0575 16.8712 37.4338 16.4502C37.81 16.0291 38.0838 15.5276 38.2339 14.9844Z" fill="black"/>
<path d="M36.2006 8.85556C35.6487 8.74422 35.0785 8.761 34.5343 8.9046C33.9901 9.0482 33.4865 9.31475 33.0627 9.6835C32.639 10.0523 32.3065 10.5133 32.0911 11.0307C31.8758 11.5481 31.7834 12.1079 31.8211 12.6667C32.3725 12.7748 32.9415 12.7556 33.4843 12.6108C34.0271 12.466 34.5293 12.1993 34.9523 11.8312C35.3752 11.4631 35.7077 11.0035 35.9241 10.4876C36.1405 9.97179 36.2351 9.41345 36.2006 8.85556Z" fill="black"/>
<path d="M23.6565 14.9067C23.1411 15.1172 22.6798 15.4401 22.3066 15.8515C21.9334 16.263 21.6579 16.7525 21.5003 17.2839C21.3426 17.8154 21.307 18.3753 21.3959 18.9223C21.4849 19.4693 21.6961 19.9895 22.0141 20.4444C22.5315 20.2363 22.9949 19.9146 23.3699 19.5034C23.7448 19.0923 24.0215 18.6022 24.1794 18.0698C24.3373 17.5374 24.3722 16.9765 24.2817 16.4288C24.1912 15.8811 23.9774 15.3608 23.6565 14.9067Z" fill="black"/>
<path d="M18.0257 3.73778C17.6452 4.13887 17.3645 4.623 17.206 5.15138C17.0475 5.67977 17.0157 6.23773 17.113 6.78057C17.2103 7.3234 17.434 7.83604 17.7664 8.2774C18.0987 8.71876 18.5303 9.07659 19.0267 9.32222C19.4072 8.92113 19.6879 8.437 19.8464 7.90862C20.0049 7.38023 20.0367 6.82227 19.9394 6.27944C19.8421 5.7366 19.6183 5.22397 19.286 4.7826C18.9537 4.34124 18.5221 3.98341 18.0257 3.73778Z" fill="black"/>
<path d="M40.4549 20.0867C40.0828 19.6762 39.6204 19.3567 39.1038 19.1529C38.5873 18.9491 38.0304 18.8666 37.4765 18.9118C36.9227 18.9569 36.3868 19.1285 35.9105 19.4132C35.4341 19.698 35.0303 20.0881 34.7303 20.5533C35.1057 20.9581 35.5688 21.2725 36.0846 21.4727C36.6004 21.6728 37.1552 21.7535 37.707 21.7085C38.2589 21.6635 38.7931 21.4941 39.2692 21.2131C39.7454 20.932 40.1509 20.5468 40.4549 20.0867Z" fill="black"/>
<path d="M5.01235 20.1022C5.31903 20.5585 5.72509 20.9403 6.20041 21.2192C6.67572 21.4981 7.20808 21.667 7.75799 21.7133C8.30789 21.7596 8.86123 21.6822 9.37694 21.4868C9.89264 21.2914 10.3575 20.983 10.737 20.5844C10.4404 20.1156 10.0384 19.7216 9.5627 19.4335C9.08697 19.1455 8.55048 18.9712 7.9955 18.9244C7.44052 18.8777 6.8822 18.9597 6.36453 19.1641C5.84686 19.3685 5.38398 19.6896 5.01235 20.1022Z" fill="black"/>
<path d="M27.4885 3.70667C26.9943 3.95594 26.5647 4.31538 26.2332 4.75695C25.9017 5.19851 25.6772 5.71027 25.5773 6.25231C25.4774 6.79435 25.5047 7.35202 25.6572 7.88183C25.8096 8.41163 26.0831 8.89926 26.4562 9.30667C26.9552 9.06216 27.3898 8.70494 27.7252 8.26357C28.0606 7.8222 28.2875 7.30891 28.3878 6.76475C28.4881 6.22058 28.459 5.66062 28.3029 5.12962C28.1467 4.59863 27.8678 4.11132 27.4885 3.70667Z" fill="black"/>
<path d="M22.3895 7.37778C22.0666 7.82166 21.8491 8.33258 21.7533 8.87211C21.6575 9.41164 21.686 9.96574 21.8365 10.4928C21.9871 11.0198 22.2558 11.506 22.6225 11.9149C22.9892 12.3237 23.4443 12.6446 23.9536 12.8533C24.2736 12.4085 24.4886 11.8977 24.5827 11.3589C24.6769 10.82 24.6477 10.267 24.4975 9.74094C24.3472 9.21486 24.0796 8.72921 23.7147 8.32009C23.3498 7.91096 22.8968 7.58888 22.3895 7.37778Z" fill="black"/>
<path d="M20.45 14.2222C20.5439 12.06 18.8859 10.5822 16.2895 10.5356C15.6952 12.4333 18.0257 14.4711 20.45 14.2222Z" fill="black"/>
<path d="M18.839 18.1889C18.839 16.12 16.8213 14.72 14.3657 15.0778C14.401 15.5974 14.553 16.1025 14.8104 16.5561C15.0679 17.0096 15.4243 17.3999 15.8535 17.6984C16.2826 17.9968 16.7736 18.1958 17.2903 18.2807C17.8069 18.3656 18.3362 18.3342 18.839 18.1889Z" fill="black"/>
<path d="M31.0859 15.1244C28.818 14.6111 26.3936 16.2911 26.6439 18.2356C28.5052 18.8889 31.258 17.1622 31.0859 15.1244Z" fill="black"/>
<path d="M29.9754 10.0533C27.8013 10.0533 25.8149 12.4333 26.5813 13.8178C27.0681 13.8425 27.5542 13.7587 28.0042 13.5724C28.4542 13.3862 28.8566 13.1022 29.182 12.7414C29.5073 12.3805 29.7475 11.9518 29.8847 11.4867C30.022 11.0216 30.053 10.5319 29.9754 10.0533Z" fill="black"/>
<path d="M5.51286 17.1C5.32333 16.6745 5.03544 16.2995 4.67264 16.0056C4.30984 15.7117 3.88238 15.5072 3.42505 15.4086C2.96773 15.3101 2.49347 15.3203 2.04088 15.4385C1.5883 15.5567 1.17018 15.7796 0.820557 16.0889C1.03308 16.4923 1.33207 16.8443 1.69639 17.1202C2.06071 17.3961 2.48149 17.5891 2.92902 17.6855C3.37654 17.7819 3.8399 17.7795 4.28636 17.6783C4.73283 17.5771 5.15152 17.3797 5.51286 17.1Z" fill="black"/>
<path d="M3.94876 10.0689C3.99689 10.5254 4.15126 10.9644 4.39963 11.3513C4.648 11.7381 4.98355 12.0621 5.37969 12.2976C5.77583 12.5331 6.22167 12.6736 6.68188 12.7079C7.14209 12.7423 7.60402 12.6696 8.03107 12.4956C7.98932 12.0362 7.83891 11.5932 7.59213 11.2027C7.34535 10.8122 7.00919 10.4852 6.61111 10.2486C6.21303 10.012 5.76432 9.87233 5.30161 9.8411C4.83891 9.80986 4.37534 9.88792 3.94876 10.0689Z" fill="black"/>
<path d="M39.1411 23.1978C39.3808 23.5772 39.7001 23.9006 40.0772 24.1459C40.4542 24.3912 40.8801 24.5526 41.3256 24.6191C41.7712 24.6856 42.226 24.6555 42.6588 24.531C43.0916 24.4065 43.4923 24.1905 43.8334 23.8978C43.6094 23.5006 43.2971 23.1597 42.9204 22.901C42.5436 22.6422 42.1124 22.4726 41.6596 22.4051C41.2068 22.3375 40.7445 22.3738 40.308 22.5112C39.8715 22.6486 39.4723 22.8835 39.1411 23.1978Z" fill="black"/>
<path d="M1.5244 23.8511C1.85202 24.1639 2.24603 24.3995 2.6774 24.5406C3.10876 24.6817 3.56648 24.7248 4.0168 24.6666C4.46712 24.6083 4.89855 24.4503 5.2793 24.2042C5.66004 23.9581 5.98039 23.6301 6.21671 23.2444C5.89478 22.9203 5.50185 22.6746 5.06862 22.5264C4.63538 22.3783 4.17358 22.3318 3.71928 22.3905C3.26498 22.4492 2.83049 22.6116 2.44974 22.865C2.06899 23.1184 1.7523 23.4559 1.5244 23.8511Z" fill="black"/>
<path d="M21.1539 24.1C21.1539 24.5126 21.3187 24.9082 21.612 25.1999C21.9053 25.4917 22.3032 25.6556 22.718 25.6556C23.1328 25.6556 23.5307 25.4917 23.824 25.1999C24.1173 24.9082 24.2821 24.5126 24.2821 24.1C24.2821 23.6874 24.1173 23.2918 23.824 23.0001C23.5307 22.7083 23.1328 22.5444 22.718 22.5444C22.3093 22.5634 21.9224 22.7333 21.6331 23.0211C21.3438 23.3088 21.1729 23.6935 21.1539 24.1Z" fill="black"/>
<path d="M41.4872 10.0689C41.0603 9.89539 40.5988 9.82255 40.1388 9.85607C39.6789 9.88959 39.233 10.0286 38.8361 10.2621C38.4391 10.4956 38.102 10.8174 37.851 11.2022C37.6 11.587 37.4419 12.0243 37.3893 12.48C37.8155 12.6639 38.2794 12.7447 38.743 12.7158C39.2067 12.687 39.6568 12.5493 40.0567 12.3141C40.4565 12.0788 40.7946 11.7527 41.0432 11.3624C41.2919 10.9722 41.444 10.5289 41.4872 10.0689Z" fill="black"/>
<path d="M23.1716 0.222222C22.7934 0.498197 22.4858 0.858879 22.2738 1.27506C22.0618 1.69125 21.9513 2.15123 21.9513 2.61778C21.9513 3.08432 22.0618 3.54431 22.2738 3.96049C22.4858 4.37668 22.7934 4.73736 23.1716 5.01333C23.5258 4.7214 23.811 4.35536 24.0067 3.94129C24.2024 3.52722 24.3039 3.07532 24.3039 2.61778C24.3039 2.16024 24.2024 1.70833 24.0067 1.29426C23.811 0.880194 23.5258 0.514151 23.1716 0.222222Z" fill="black"/>
<path d="M33.5572 4.60889C33.1003 4.62596 32.6534 4.74656 32.2505 4.96149C31.8476 5.17642 31.4994 5.48001 31.2323 5.8491C30.9653 6.2182 30.7865 6.64306 30.7097 7.09129C30.6328 7.53953 30.6599 7.9993 30.7888 8.43556C31.2526 8.4379 31.7103 8.32989 32.1237 8.12054C32.5371 7.91119 32.8941 7.60657 33.165 7.23209C33.4359 6.85762 33.6129 6.42414 33.6811 5.96781C33.7493 5.51149 33.7069 5.04556 33.5572 4.60889Z" fill="black"/>
<path d="M30.1944 27.2889C30.2335 27.7444 30.3789 28.1845 30.619 28.5744C30.8591 28.9642 31.1873 29.293 31.5775 29.5346C31.9677 29.7762 32.4092 29.924 32.8669 29.9662C33.3246 30.0084 33.7859 29.9439 34.2141 29.7778C34.1782 29.3209 34.0349 28.8788 33.7956 28.4872C33.5563 28.0955 33.2279 27.7653 32.8367 27.5231C32.4455 27.2809 32.0026 27.1335 31.5436 27.0928C31.0846 27.0521 30.6225 27.1193 30.1944 27.2889Z" fill="black"/>
<path d="M11.91 4.56222C11.7892 4.96257 11.7508 5.38303 11.7969 5.79849C11.8431 6.21395 11.973 6.61589 12.1789 6.98032C12.3847 7.34474 12.6623 7.66418 12.995 7.91956C13.3277 8.17493 13.7088 8.361 14.1154 8.46667C14.6316 8.56 14.788 8.35778 14.8193 7.86C14.8708 7.03958 14.5937 6.23223 14.0486 5.61432C13.5035 4.99641 12.7347 4.61817 11.91 4.56222Z" fill="black"/>
<path d="M14.6316 27.0867C14.2293 27.0302 13.8196 27.056 13.4276 27.1624C13.0357 27.2688 12.6696 27.4536 12.352 27.7055C12.0343 27.9574 11.7716 28.2711 11.5799 28.6274C11.3883 28.9837 11.2718 29.3751 11.2375 29.7778C12.0055 30.0517 12.8508 30.0163 13.5929 29.6792C14.3351 29.3421 14.9155 28.73 15.2103 27.9733C15.4449 27.3511 15.2572 27.1333 14.6316 27.0867Z" fill="black"/>
<path d="M39.9231 17.1156C40.2845 17.3953 40.7032 17.5927 41.1496 17.6939C41.5961 17.795 42.0594 17.7975 42.507 17.7011C42.9545 17.6046 43.3753 17.4117 43.7396 17.1358C44.1039 16.8599 44.4029 16.5078 44.6154 16.1044C44.2687 15.7884 43.8507 15.5598 43.3967 15.4376C42.9427 15.3155 42.4659 15.3034 42.0062 15.4025C41.5465 15.5015 41.1175 15.7088 40.755 16.0069C40.3926 16.3049 40.1073 16.6851 39.9231 17.1156Z" fill="black"/>
<path d="M54.6883 25.4533C53.7383 25.4533 52.8273 25.078 52.1555 24.41C51.4838 23.7419 51.1065 22.8359 51.1065 21.8911C51.1065 20.9464 51.4838 20.0403 52.1555 19.3722C52.8273 18.7042 53.7383 18.3289 54.6883 18.3289C55.2917 18.3479 55.8839 18.4967 56.424 18.7653C56.964 19.0338 57.4391 19.4157 57.8165 19.8844L59.6308 17.7533C58.2864 16.479 56.4985 15.7712 54.6413 15.7778C53.8197 15.7706 53.0047 15.9245 52.2429 16.2306C51.4811 16.5367 50.7874 16.989 50.2013 17.5617C49.6153 18.1345 49.1484 18.8164 48.8274 19.5686C48.5063 20.3207 48.3374 21.1284 48.3302 21.9456C48.323 22.7627 48.4777 23.5732 48.7855 24.3308C49.0932 25.0885 49.548 25.7784 50.1239 26.3613C50.6998 26.9441 51.3855 27.4085 52.1418 27.7277C52.8981 28.0471 53.7102 28.2151 54.5318 28.2222C56.4462 28.1582 58.2618 27.3612 59.5995 25.9978L57.7695 24.0844C56.9549 24.9139 55.853 25.4034 54.6883 25.4533Z" fill="black"/>
<path d="M71.2052 20.0867C71.2052 17.3333 69.3126 15.7778 66.0593 15.7778H60.5849V27.9733H63.7131V24.5511H66.1688L67.9988 27.9733H71.518L68.9372 23.9444C69.6533 23.5926 70.2498 23.0395 70.6529 22.3538C71.056 21.6681 71.248 20.8798 71.2052 20.0867ZM66.0906 22.1711H63.6975V18.2822H66.0593C67.42 18.2822 68.2021 18.92 68.2021 20.1956C68.2021 21.4711 67.42 22.1711 66.0593 22.1711H66.0906Z" fill="black"/>
<path d="M80.7775 22.9178C80.8158 23.2592 80.7798 23.6047 80.672 23.9311C80.5643 24.2574 80.3872 24.5569 80.1528 24.8092C79.9184 25.0615 79.6322 25.2607 79.3136 25.3933C78.995 25.5259 78.6514 25.5888 78.3062 25.5778C77.956 25.5922 77.6068 25.5324 77.2816 25.4023C76.9564 25.2723 76.6628 25.0749 76.4202 24.8233C76.1776 24.5718 75.9916 24.2718 75.8745 23.9432C75.7574 23.6147 75.7119 23.2651 75.7411 22.9178V15.7778H72.6129V22.8556C72.6129 26.0756 74.8183 28.1133 78.2749 28.1133C79.0013 28.1882 79.7354 28.106 80.4268 27.8724C81.1183 27.6388 81.7509 27.2594 82.2812 26.76C82.8115 26.2607 83.227 25.6533 83.4993 24.9794C83.7716 24.3055 83.8942 23.581 83.8588 22.8556V15.7778H80.7306L80.7775 22.9178Z" fill="black"/>
<path d="M91.5385 25.4533C90.5886 25.4533 89.6775 25.078 89.0058 24.41C88.3341 23.7419 87.9567 22.8359 87.9567 21.8911C87.9567 20.9464 88.3341 20.0403 89.0058 19.3722C89.6775 18.7042 90.5886 18.3289 91.5385 18.3289C92.142 18.3479 92.7342 18.4967 93.2742 18.7653C93.8143 19.0338 94.2894 19.4157 94.6667 19.8844L96.4811 17.7533C95.1249 16.4678 93.3181 15.759 91.4447 15.7778C90.6231 15.7706 89.8081 15.9245 89.0463 16.2306C88.2845 16.5367 87.5907 16.989 87.0047 17.5617C86.4186 18.1345 85.9518 18.8164 85.6307 19.5686C85.3096 20.3207 85.1407 21.1284 85.1335 21.9456C85.1263 22.7627 85.281 23.5732 85.5888 24.3308C85.8966 25.0885 86.3514 25.7784 86.9273 26.3613C87.5031 26.9441 88.1888 27.4085 88.9451 27.7277C89.7014 28.0471 90.5136 28.2151 91.3352 28.2222C93.2496 28.1582 95.0651 27.3612 96.4029 25.9978L94.5729 24.0844C93.7699 24.9032 92.6868 25.3918 91.5385 25.4533Z" fill="black"/>
<path d="M100.501 23.1356H106.351V20.7089H100.501V18.2822H106.992V15.84H97.3883V28.0356H107.18V25.5933H100.501V23.1356Z" fill="black"/>
</svg>
