<svg width="31" height="25" viewBox="0 0 31 25" fill="none" xmlns="http://www.w3.org/2000/svg">
<path d="M9.26733 12.9241C9.26733 13.4941 9.67447 13.9012 10.0816 13.9012H16.6773C17.1658 13.9012 17.4916 13.4941 17.4916 12.9241V10.9698C17.4916 10.3998 17.0844 9.99268 16.6773 9.99268H10.0816C9.59305 9.99268 9.26733 10.3998 9.26733 10.9698V12.9241Z" fill="#1D70B7"/>
<path d="M18.4688 3.88515C18.6316 3.96658 18.7131 4.12944 18.8759 4.21087C19.0388 4.37372 19.1202 4.45515 19.2016 4.618C19.2831 4.78086 19.3645 4.86229 19.4459 4.94372C19.6088 4.94372 19.7716 4.94372 20.0159 4.94372C20.5859 4.94372 20.993 5.02514 21.4002 5.10657C21.9702 5.26943 22.4587 5.51371 22.9473 5.758C23.5987 6.16513 24.1687 6.6537 24.5759 7.30513C24.7387 7.46798 24.8202 7.71226 24.9016 7.95655C24.983 8.20083 25.1459 8.36369 25.3087 8.52654C25.3902 8.60797 25.553 8.60797 25.7973 8.6894C26.0416 8.6894 26.2859 8.77083 26.5301 8.77083C26.7744 8.77083 27.0187 8.77083 27.3444 8.77083C27.5887 8.77083 27.833 8.77083 27.9958 8.77083C28.1587 8.77083 28.3216 8.77083 28.4844 8.77083C28.6473 8.77083 28.8101 8.77083 28.8916 8.6894H29.1358C29.2987 8.60797 29.3801 8.60797 29.543 8.60797C29.6244 8.60797 29.7058 8.52654 29.7873 8.36369C29.8687 8.20083 29.8687 8.03798 29.7873 7.87512C29.7058 7.71227 29.7058 7.54941 29.6244 7.38655C29.4615 6.97941 29.3801 6.57227 29.2173 6.24656C29.0544 5.92085 28.8916 5.51371 28.6473 5.188C27.833 3.88515 26.6116 2.90802 25.1459 2.09374C23.6802 1.36089 21.8887 0.953749 19.6088 1.03518C19.5273 1.03518 19.5273 1.03518 19.4459 1.03518C19.3645 1.03518 19.3645 1.03518 19.2831 1.03518C19.1202 1.03518 18.9573 1.03518 18.7945 1.1166C18.6316 1.1166 18.4688 1.1166 18.3059 1.19803C18.2245 1.27946 18.0616 1.27946 17.9802 1.27946C17.8174 1.27946 17.7359 1.27946 17.5731 1.36089C17.2474 1.44232 17.0031 1.52374 16.6774 1.52374C16.4331 1.60517 16.1074 1.6866 15.8631 1.76803C15.7002 1.84946 15.5374 1.93088 15.3745 2.01231C15.9445 2.2566 16.4331 2.50088 16.8402 2.74516C17.4102 2.98945 17.8988 3.39659 18.4688 3.88515Z" fill="#1D70B7"/>
<path d="M11.5473 19.6014C11.6288 19.6014 11.7102 19.6014 11.8731 19.5199C12.1988 19.4385 12.4431 19.3571 12.6873 19.2756C12.9316 19.1942 13.1759 19.1128 13.4202 19.0314C14.153 18.6242 14.8045 18.1357 15.293 17.5657L15.3745 17.4842C14.9673 16.9142 14.5602 16.1814 14.3159 15.4485C14.2345 15.2857 14.2345 15.1228 14.153 14.8785C14.0716 14.7157 14.0716 14.4714 13.9902 14.2271C13.9902 14.0643 13.9088 13.9014 13.9088 13.7385C13.8273 13.6571 13.8273 13.5757 13.8273 13.4128C13.8273 13.3314 13.8273 13.25 13.7459 13.0871V12.8428C13.7459 12.7614 13.7459 12.68 13.7459 12.5986C13.7459 12.5171 13.7459 12.4357 13.7459 12.3543C13.7459 12.1914 13.7459 12.0286 13.7459 11.8657C13.7459 11.7029 13.7459 11.54 13.8273 11.3771C13.9088 11.2143 13.9088 11.1329 13.9088 10.97C13.9088 10.8071 13.9088 10.7257 13.9902 10.5629C13.9902 10.4 13.9902 10.3186 14.0716 10.1557C14.0716 9.99287 14.153 9.91144 14.153 9.74858C14.2345 9.42287 14.3159 9.17859 14.4787 8.9343C14.5602 8.69002 14.6416 8.44574 14.8045 8.20145C14.9673 7.79431 15.2116 7.38717 15.5373 7.06146C14.9673 6.32861 14.153 5.75861 13.1759 5.35148C13.013 5.27005 12.8502 5.27005 12.7688 5.18862C12.6059 5.18862 12.4431 5.10719 12.2802 5.10719C12.0359 5.02576 11.7102 5.02576 11.3845 4.94434C11.1402 5.35148 10.8145 5.67719 10.5702 6.16575C10.4074 6.41004 10.3259 6.65432 10.1631 6.89861C10.0816 7.14289 9.91879 7.38717 9.83736 7.71289C9.75593 7.95717 9.6745 8.20145 9.59307 8.44574C9.51165 8.69002 9.43022 9.01573 9.34879 9.26002C9.26736 9.42287 9.26736 9.58573 9.26736 9.74858C9.26736 9.91144 9.18593 10.0743 9.18593 10.2371C9.18593 10.4 9.18593 10.5629 9.10451 10.8071C9.10451 10.97 9.10451 11.1329 9.02308 11.2957V11.54C9.02308 11.54 9.02308 11.6214 9.02308 11.7029C9.02308 11.7843 9.02308 11.8657 9.02308 11.8657C8.94165 11.9471 8.94165 12.11 8.94165 12.3543C8.94165 12.5986 8.94165 12.68 9.02308 12.8428V13.4128C9.02308 13.4943 9.02308 13.5757 9.02308 13.6571C9.02308 13.7385 9.02308 13.82 9.10451 13.9014C9.18593 14.0643 9.18593 14.3085 9.18593 14.4714C9.18593 14.7157 9.26736 14.8785 9.26736 15.0414C9.26736 15.1228 9.26736 15.2043 9.26736 15.2857C9.26736 15.3671 9.26736 15.4485 9.34879 15.53C9.43022 15.8557 9.59307 16.1814 9.6745 16.4257C9.75593 16.7514 9.83736 16.9957 10.0002 17.3214C10.4074 18.1357 10.8145 18.8685 11.3845 19.5199H11.4659C11.3031 19.6014 11.3845 19.6014 11.5473 19.6014Z" fill="#1D70B7"/>
<path d="M29.6243 14.9602C29.4614 14.8788 29.2986 14.7974 29.1357 14.7974C28.9729 14.7974 28.7286 14.7974 28.5657 14.7974H26.6115C26.4486 14.7974 26.2858 14.7974 26.0415 14.7974C25.8786 14.7974 25.7158 14.7974 25.5529 14.8788C25.3086 14.9602 25.2272 15.1231 25.1458 15.2859C25.0643 15.4488 24.9829 15.6931 24.9829 15.8559C24.9015 16.1002 24.7386 16.3445 24.6572 16.5888C24.5758 16.8331 24.4943 17.0773 24.3315 17.2402C24.0872 17.6473 23.7615 18.0545 23.3543 18.3802C23.0286 18.7059 22.5401 18.9502 22.0515 19.1945C21.8072 19.2759 21.6444 19.3573 21.4001 19.4388C21.1558 19.5202 20.9115 19.5202 20.6672 19.5202C20.5858 19.5202 20.5044 19.5202 20.3415 19.5202C20.2601 19.5202 20.0972 19.5202 19.9344 19.6016C19.7715 19.6016 19.6087 19.6016 19.5272 19.5202H19.3644C19.1201 19.8459 18.8758 20.1716 18.5501 20.4159C17.6544 21.3116 16.5958 21.963 15.293 22.533C15.2116 22.533 15.2116 22.533 15.1301 22.6144C15.293 22.6959 15.3744 22.6959 15.5373 22.7773C15.7001 22.8587 15.9444 22.9402 16.1073 22.9402C16.3515 23.0216 16.5144 23.0216 16.7587 23.103C17.003 23.103 17.1658 23.1844 17.4101 23.2659C17.573 23.2659 17.7358 23.2659 17.8987 23.3473C18.0615 23.3473 18.2244 23.4287 18.3872 23.4287C18.5501 23.4287 18.6315 23.4287 18.713 23.4287C18.8758 23.4287 19.0387 23.5102 19.2829 23.5102C19.4458 23.5102 19.6901 23.5102 19.8529 23.5102H20.3415C20.5044 23.5102 20.6672 23.5101 20.7487 23.4287C20.9115 23.4287 20.9929 23.4287 21.1558 23.4287C21.2372 23.3473 21.4001 23.3473 21.4815 23.3473C21.5629 23.3473 21.6444 23.3473 21.8072 23.2659C22.0515 23.2659 22.2958 23.1844 22.5401 23.1844C22.7844 23.1844 23.0286 23.103 23.2729 23.0216C25.4715 22.3702 27.1815 21.1487 28.4029 19.3573C28.4843 19.1945 28.5657 19.113 28.6472 18.9502C28.7286 18.7873 28.81 18.6245 28.8914 18.4616C29.0543 18.2173 29.1357 17.8916 29.2986 17.6473C29.38 17.4031 29.4614 17.0773 29.6243 16.7516L29.7872 15.9374C29.8686 15.7745 29.8686 15.5302 29.8686 15.2859C29.8686 15.2045 29.7872 15.0416 29.6243 14.9602Z" fill="#1D70B7"/>
<path d="M18.1432 5.18862C17.9803 5.18862 17.8989 5.27005 17.736 5.35148C16.7589 5.75861 15.9446 6.32861 15.3746 7.06146C15.6189 7.38717 15.8632 7.79431 16.1075 8.20145C16.1889 8.44574 16.3518 8.69002 16.4332 8.9343C16.5146 9.17859 16.8403 10.4 16.8403 10.5629C16.9218 10.6443 16.9218 11.2143 16.9218 11.3771C16.9218 11.54 16.9218 12.1914 16.9218 12.3543C16.9218 12.4357 16.9218 12.5171 16.9218 12.5986C16.9218 12.68 16.9218 12.7614 16.9218 12.8428C16.9218 12.8428 16.8403 13.3314 16.8403 13.4128C16.8403 13.4943 16.8403 13.5757 16.7589 13.7385C16.7589 13.9014 16.7589 14.0643 16.6775 14.2271C16.5961 14.4714 16.5961 14.6343 16.5146 14.8785C16.5146 15.0414 16.4332 15.2857 16.3518 15.4485C16.1075 16.2628 15.7004 16.9142 15.2932 17.4842L15.3746 17.5657C15.8632 18.1357 16.4332 18.6242 17.2475 19.0314C17.4918 19.1128 17.736 19.1942 17.9803 19.2756C18.2246 19.3571 18.5503 19.4385 18.7946 19.5199C18.876 19.5199 19.0389 19.5199 19.1203 19.6014C19.2018 19.6014 19.2832 19.6014 19.446 19.6014H19.5275C20.016 18.9499 20.5046 18.2171 20.9117 17.4028C21.0746 17.0771 21.156 16.8328 21.2374 16.5071C21.3189 16.1814 21.4003 15.8557 21.5632 15.6114C21.6446 15.53 21.6446 15.4485 21.6446 15.3671C21.6446 15.2857 21.6446 15.2043 21.6446 15.1228C21.726 14.96 21.726 14.7157 21.726 14.5528C21.726 14.39 21.8074 14.1457 21.8074 13.9828C21.8889 13.9014 21.8889 13.82 21.8889 13.7385C21.8889 13.6571 21.8889 13.5757 21.8889 13.4943V12.9243C21.9703 12.8428 21.9703 12.68 21.9703 12.4357C21.9703 12.2728 21.9703 12.11 21.8889 11.9471C21.8889 11.8657 21.8889 11.7843 21.8889 11.7843C21.8889 11.7029 21.8889 11.6214 21.8889 11.6214V11.2957C21.8074 11.1329 21.8074 10.97 21.8074 10.8071C21.8074 10.6443 21.8074 10.4814 21.726 10.2371C21.6446 10.0743 21.6446 9.91144 21.6446 9.74858C21.6446 9.58573 21.5632 9.42287 21.5632 9.26002C21.4817 8.9343 21.4003 8.69002 21.3189 8.44574C21.2374 8.20145 21.156 7.95717 21.0746 7.71289C20.9932 7.4686 20.8303 7.22432 20.7489 6.89861C20.586 6.65432 20.4232 6.41004 20.2603 6.16575C20.016 5.75861 19.6903 5.35148 19.446 4.94434C19.1203 4.94434 18.876 5.02576 18.5503 5.10719C18.3875 5.10719 18.2246 5.18862 18.1432 5.18862Z" fill="#35A8E0"/>
<path d="M11.9546 20.4969C11.6289 20.1712 11.3846 19.927 11.1403 19.6012H10.9774C10.896 19.6012 10.7332 19.6827 10.5703 19.6827C10.4075 19.6827 10.2446 19.6827 10.1632 19.6012C10.0003 19.6012 9.91888 19.6012 9.83745 19.6012C9.59317 19.6012 9.34889 19.5198 9.1046 19.5198C8.86032 19.5198 8.69746 19.4384 8.45318 19.2755C7.96461 19.1127 7.55747 18.787 7.15033 18.4612C6.82462 18.1355 6.49891 17.7284 6.1732 17.3213C6.01034 17.1584 5.92892 16.9141 5.84749 16.6698C5.76606 16.4255 5.68463 16.1813 5.52178 15.937C5.44035 15.6927 5.35892 15.5298 5.35892 15.367C5.27749 15.2041 5.19606 15.0413 4.95178 14.9598C4.78892 14.9598 4.62607 14.8784 4.46321 14.8784C4.30036 14.8784 4.05607 14.8784 3.89322 14.8784H2.02038C1.85752 14.8784 1.61324 14.8784 1.45038 14.8784C1.2061 14.8784 1.04324 14.9598 0.961813 15.0413C0.798957 15.0413 0.717529 15.2041 0.717529 15.4484C0.717529 15.6927 0.717529 15.8556 0.798957 16.0998L0.961813 16.9141C1.04324 17.2398 1.2061 17.4841 1.28752 17.8098C1.36895 18.1355 1.53181 18.3798 1.69466 18.6241C1.77609 18.787 1.85752 18.9498 1.93895 19.1127C2.02038 19.2755 2.1018 19.4384 2.18323 19.5198C3.32322 21.2298 5.03321 22.4512 7.31319 23.1841C7.55747 23.2655 7.80176 23.3469 8.04604 23.3469C8.29032 23.3469 8.53461 23.4284 8.77889 23.4284C8.86032 23.5098 9.02318 23.5098 9.1046 23.5098C9.18603 23.5098 9.26746 23.5098 9.43032 23.5912C9.59317 23.5912 9.75603 23.5912 9.83745 23.5912C10.0003 23.5912 10.0817 23.5912 10.2446 23.6726H10.7332C10.896 23.6726 11.1403 23.6726 11.3032 23.6726C11.466 23.6726 11.7103 23.6726 11.8732 23.5912C11.9546 23.5912 12.036 23.5912 12.1989 23.5912C12.3617 23.5912 12.5246 23.5098 12.606 23.5098C12.7689 23.5098 12.9317 23.5098 13.0946 23.4284C13.3389 23.3469 13.5017 23.3469 13.746 23.2655C13.9903 23.1841 14.1531 23.1841 14.3974 23.1026C14.5603 23.0212 14.8046 22.9398 14.9674 22.9398C15.1303 22.8584 15.2117 22.8584 15.3746 22.7769C15.2931 22.7769 15.2931 22.7769 15.2117 22.6955C13.9088 22.0441 12.8503 21.3927 11.9546 20.4969Z" fill="#35A8E0"/>
<path d="M11.7102 4.29267C11.8731 4.21124 11.9545 4.04838 12.1174 3.96696C12.6873 3.47839 13.1759 3.07125 13.8273 2.66411C14.2345 2.41982 14.8045 2.17554 15.293 1.93126C15.1302 1.84983 14.9673 1.7684 14.8045 1.68697C14.5602 1.60555 14.3159 1.52412 13.9902 1.44269C13.7459 1.36126 13.4202 1.27983 13.0945 1.27983C12.9316 1.19841 12.8502 1.19841 12.6873 1.19841C12.5245 1.19841 12.4431 1.19841 12.3616 1.11698C12.1988 1.11698 12.0359 1.11698 11.8731 1.03555C11.7102 1.03555 11.5474 1.03555 11.3845 0.954122C11.3845 0.954122 11.3031 0.954122 11.2216 0.954122C11.1402 0.954122 11.0588 0.954122 11.0588 0.954122C8.86023 0.872694 6.98739 1.27983 5.52169 2.01269C4.05599 2.90839 2.916 3.88553 2.10172 5.18837C1.85743 5.51409 1.69458 5.8398 1.53172 6.24694C1.36887 6.57265 1.20601 6.97979 1.12458 7.38693C1.04316 7.54978 1.04316 7.71264 0.961727 7.8755C0.880299 8.03835 0.961727 8.20121 0.961727 8.36406C0.961727 8.44549 1.04316 8.52692 1.20601 8.60835C1.28744 8.60835 1.45029 8.68977 1.61315 8.68977H1.85743C2.02029 8.68977 2.10172 8.7712 2.26457 8.7712C2.42743 8.7712 2.59029 8.7712 2.75314 8.7712C2.916 8.7712 3.16028 8.7712 3.40456 8.7712C3.64885 8.7712 3.89313 8.7712 4.21884 8.7712C4.46313 8.7712 4.70741 8.7712 4.95169 8.68977C5.19598 8.68977 5.35883 8.60835 5.44026 8.52692C5.60312 8.44549 5.76597 8.20121 5.8474 7.95692C5.92883 7.71264 6.01026 7.46836 6.17311 7.3055C6.58025 6.65408 7.06882 6.08408 7.80167 5.75837C8.29024 5.51409 8.77881 5.2698 9.26737 5.10695C9.59309 5.02552 10.0817 4.94409 10.6516 4.94409C10.8145 4.94409 11.0588 4.94409 11.2216 4.94409C11.2216 4.86266 11.3031 4.78123 11.3845 4.69981C11.4659 4.53695 11.6288 4.3741 11.7102 4.29267Z" fill="#35A8E0"/>
<path d="M12.5247 5.18864C12.6875 5.18864 12.8504 5.27007 12.9318 5.3515C13.9089 5.75864 14.7232 6.32863 15.2932 7.06148C15.8632 6.32863 16.6775 5.75864 17.6546 5.3515C17.8175 5.27007 17.9803 5.27007 18.0618 5.18864C18.2246 5.18864 18.3875 5.10721 18.5503 5.10721C18.7946 5.02579 19.1203 5.02579 19.446 4.94436C19.3646 4.86293 19.2832 4.70007 19.2017 4.61865C19.1203 4.45579 18.9575 4.37436 18.876 4.21151C18.7132 4.13008 18.6317 3.96722 18.4689 3.8858C17.8989 3.39723 17.3289 2.99009 16.7589 2.58295C16.2703 2.33867 15.7818 2.09438 15.2932 1.8501C14.7232 2.09438 14.2346 2.33867 13.8275 2.58295C13.2575 2.90866 12.6875 3.39723 12.1175 3.8858C11.9547 3.96722 11.8732 4.13008 11.7104 4.21151C11.5475 4.37436 11.4661 4.45579 11.3847 4.61865C11.3032 4.7815 11.2218 4.86293 11.1404 4.94436C11.4661 4.94436 11.7104 5.02579 12.0361 5.10721C12.1989 5.10721 12.3618 5.18864 12.5247 5.18864Z" fill="#35A8E0"/>
<path d="M18.7131 20.4972C19.0388 20.1715 19.2831 19.9272 19.5273 19.6015H19.4459C19.3645 19.6015 19.2016 19.6015 19.1202 19.6015C19.0388 19.6015 18.9573 19.6015 18.7945 19.5201C18.4688 19.4386 18.2245 19.3572 17.9802 19.2758C17.7359 19.1944 17.4916 19.1129 17.2474 19.0315C16.5145 18.6244 15.8631 18.1358 15.3745 17.5658L15.2931 17.4844L15.2117 17.5658C14.7231 18.1358 14.1531 18.6244 13.3388 19.0315C13.0945 19.1129 12.8503 19.1944 12.606 19.2758C12.3617 19.3572 12.036 19.4386 11.7917 19.5201C11.7103 19.5201 11.5474 19.5201 11.466 19.6015C11.3845 19.6015 11.3031 19.6015 11.1403 19.6015H11.0588C11.3031 19.9272 11.5474 20.2529 11.8731 20.4972C12.7688 21.3929 13.8274 22.0443 15.1302 22.6143C15.2117 22.6143 15.2117 22.6143 15.2931 22.6958C15.3745 22.6958 15.3745 22.6958 15.4559 22.6143C16.6774 22.0443 17.8174 21.3929 18.7131 20.4972Z" fill="#1D70B7"/>
</svg>
