<svg width="45" height="36" viewBox="0 0 45 36" fill="none" xmlns="http://www.w3.org/2000/svg">
<g clip-path="url(#clip0_6637_2961)">
<path d="M37.7839 0.0589651L10.4994 8.32655C10.4994 8.32655 10.3745 8.37061 10.3672 8.37061C9.51547 8.64228 8.34068 9.0094 7.38616 10.4412L0.711881 20.3682C0.403498 20.8234 0.315389 21.3961 0.46958 21.9247L2.77511 29.8179C2.9293 30.3539 3.31845 30.7871 3.83242 31.0073L14.7506 35.6111C16.4247 36.3233 17.739 35.8974 18.5246 35.6404C18.51 35.6404 30.86 31.9178 39.1569 29.392L44.5977 18.5986L39.5828 1.04285C39.3625 0.271896 38.5548 -0.16865 37.7839 0.0589651ZM7.90013 25.0747C7.56238 25.6914 6.79142 25.9264 6.17466 25.5886C5.55789 25.2509 5.33028 24.4799 5.66069 23.8632C5.99844 23.2464 6.7694 23.0114 7.38616 23.3492C8.01027 23.6869 8.23789 24.4579 7.90013 25.0747Z" fill="#FC5226"/>
<path d="M34.546 9.38387C34.5387 10.0447 34.0101 10.5587 33.3346 10.5513C32.6591 10.544 32.1304 10.0153 32.1378 9.36184C32.1451 8.70102 32.6811 8.1944 33.3639 8.20174C34.0247 8.20908 34.5534 8.73039 34.546 9.38387ZM32.4388 9.36919C32.4315 9.8905 32.8206 10.309 33.3493 10.3164C33.8559 10.331 34.245 9.91253 34.2524 9.39856C34.2597 8.87724 33.8779 8.45138 33.3566 8.44404C32.8353 8.4367 32.4461 8.84787 32.4388 9.36919ZM33.151 9.97861H32.8793L32.8867 8.80382C32.9968 8.78913 33.1437 8.77445 33.3346 8.77445C33.5548 8.77445 33.6576 8.81116 33.7311 8.8699C33.8045 8.9213 33.8485 9.00941 33.8485 9.11954C33.8485 9.25905 33.7384 9.3545 33.6062 9.39856V9.41324C33.7237 9.44995 33.7751 9.5454 33.8118 9.6996C33.8485 9.87581 33.8706 9.9419 33.8926 9.98595H33.6062C33.5695 9.9419 33.5475 9.84644 33.5181 9.6996C33.4961 9.58212 33.43 9.52338 33.2758 9.51604H33.1437L33.151 9.97861ZM33.1657 9.32513H33.2979C33.4447 9.32513 33.5695 9.28108 33.5695 9.15626C33.5695 9.04612 33.4961 8.98004 33.3199 8.97269C33.2465 8.97269 33.1951 8.98004 33.1657 8.98738V9.32513Z" fill="white"/>
<path d="M18.8847 15.0525V19.8251H16.4544V15.7207C16.4544 14.8322 15.9477 14.2889 15.118 14.2889C14.1635 14.2889 13.5688 15.0451 13.5688 16.0878V19.8251H11.1384V10.1624L13.5688 9.4502V13.5032C14.1048 12.6075 14.9859 12.1522 16.1093 12.1375C17.7907 12.1449 18.8847 13.283 18.8847 15.0525Z" fill="white"/>
<path d="M27.1524 16.0365C27.1524 18.3714 25.493 19.9133 23.0186 19.9133C20.5295 19.9133 18.8701 18.364 18.8701 16.0365C18.8701 13.7089 20.5295 12.1743 23.0186 12.1743C25.493 12.167 27.1524 13.7016 27.1524 16.0365ZM21.3225 16.0658C21.3225 17.248 22.0127 18.0336 23.0259 18.0336C24.0245 18.0336 24.7147 17.248 24.7147 16.0658C24.7147 14.8984 24.0245 14.0981 23.0259 14.0981C22.0127 14.0981 21.3225 14.8984 21.3225 16.0658Z" fill="white"/>
<path d="M32.2554 19.4216C31.7047 19.7446 30.9631 19.9429 30.2288 19.9429C28.7677 19.9429 27.7104 19.1132 27.7104 17.5419V14.2011H26.6531V12.6151H27.7104V10.5005H30.1334V12.5931H32.1159V14.1937H30.1334V17.1601C30.1334 17.7475 30.383 18.0045 30.8383 17.9898C31.0879 17.9898 31.411 17.8943 31.7781 17.7401L32.2554 19.4216Z" fill="white"/>
<path d="M17.2913 27.5854L16.1385 23.7306L14.9858 27.5854H13.1135L10.9768 21.5132H12.8932L14.0973 25.7131L15.2721 21.5132H17.0637L18.2679 25.7131L19.45 21.5132H21.2856L19.1416 27.5854H17.2913Z" fill="white"/>
<path d="M26.3885 25.0744H22.1152C22.3061 25.794 22.8274 26.1978 23.547 26.1978C24.0756 26.1978 24.597 25.9849 25.0008 25.5811L26.0287 26.587C25.412 27.2625 24.4942 27.659 23.3781 27.659C21.3957 27.659 20.1548 26.4181 20.1548 24.5678C20.1548 22.6881 21.4397 21.4473 23.3194 21.4473C25.4707 21.4473 26.528 22.857 26.3885 25.0744ZM24.5235 24.0245C24.5235 23.2829 24.0536 22.7983 23.3487 22.7983C22.6732 22.7983 22.2107 23.2976 22.0858 24.0245H24.5235Z" fill="white"/>
<path d="M31.9176 25.0744H27.6443C27.8352 25.794 28.3565 26.1978 29.076 26.1978C29.6047 26.1978 30.126 25.9849 30.5299 25.5811L31.5578 26.587C30.941 27.2625 30.0232 27.659 28.9072 27.659C26.9247 27.659 25.6838 26.4181 25.6838 24.5678C25.6838 22.6881 26.9688 21.4473 28.8484 21.4473C30.9998 21.4473 32.0571 22.857 31.9176 25.0744ZM30.0526 24.0245C30.0526 23.2829 29.5827 22.7983 28.8778 22.7983C28.2023 22.7983 27.7397 23.2976 27.6149 24.0245H30.0526Z" fill="white"/>
<path d="M33.6796 25.9336V27.593H31.7266V20.3093C32.2479 20.2653 32.9821 19.8688 33.151 19.5751L33.0188 19.23H33.6723V23.6428L35.6768 21.5135H37.8869L35.6548 23.8484L37.953 27.593H35.6401L34.3184 25.2508L33.6796 25.9336Z" fill="white"/>
<path opacity="0.15" d="M36.1538 22.6513C36.4475 22.1667 37.6297 20.9258 37.6297 20.9258L39.1569 29.3916L36.2566 24.4428C35.7794 23.6865 35.9556 22.9743 36.1538 22.6513Z" fill="black"/>
<path d="M44.5979 18.5986C44.0839 18.7528 40.8165 19.7294 38.3788 20.4636C37.4683 20.7353 36.9544 21.6898 37.2114 22.6003L39.1571 29.392L44.5979 18.5986Z" fill="#2E334D"/>
</g>
<defs>
<clipPath id="clip0_6637_2961">
<rect width="44.2015" height="36" fill="white" transform="translate(0.39624)"/>
</clipPath>
</defs>
</svg>
