<svg width="79" height="36" viewBox="0 0 79 36" fill="none" xmlns="http://www.w3.org/2000/svg">
<path d="M52.247 13.3801H45.497C45.4307 13.3801 45.3671 13.4064 45.3202 13.4533C45.2733 13.5002 45.247 13.5638 45.247 13.6301V15.0001C45.2469 15.0334 45.2537 15.0663 45.267 15.0968C45.2803 15.1273 45.2997 15.1547 45.3242 15.1773C45.3486 15.1999 45.3775 15.2171 45.409 15.2279C45.4405 15.2387 45.4738 15.2429 45.507 15.2401H47.747V22.8901C47.7496 22.96 47.7792 23.0261 47.8295 23.0746C47.8799 23.1231 47.9471 23.1501 48.017 23.1501H49.737C49.8059 23.1501 49.8721 23.1227 49.9208 23.0739C49.9696 23.0252 49.997 22.9591 49.997 22.8901V15.2301H52.227C52.2922 15.2308 52.3554 15.2079 52.405 15.1657C52.4547 15.1234 52.4873 15.0646 52.497 15.0001V13.6301C52.4945 13.5646 52.4674 13.5024 52.421 13.4561C52.3747 13.4097 52.3125 13.3826 52.247 13.3801Z" fill="#8C8C8C"/>
<path d="M59.417 13.4301C58.543 13.3027 57.6601 13.2459 56.777 13.2601C55.077 13.2601 53.567 13.6801 53.567 16.0701V20.4301C53.567 22.8201 55.067 23.2601 56.757 23.2601C57.6466 23.2686 58.5357 23.2118 59.417 23.0901C59.597 23.0901 59.677 22.9801 59.677 22.8101V21.5901C59.677 21.5211 59.6496 21.455 59.6008 21.4063C59.5521 21.3575 59.4859 21.3301 59.417 21.3301H56.647C56.027 21.3301 55.807 21.1201 55.807 20.4301V19.0001H59.307C59.3769 19.0002 59.4441 18.9731 59.4945 18.9246C59.5448 18.8761 59.5744 18.81 59.577 18.7401V17.5301C59.5744 17.4602 59.5448 17.3941 59.4945 17.3456C59.4441 17.2971 59.3769 17.2701 59.307 17.2701H55.807V16.0701C55.807 15.3901 56.027 15.1801 56.647 15.1801H59.417C59.4868 15.1775 59.553 15.1479 59.6015 15.0976C59.65 15.0472 59.677 14.98 59.677 14.9101V13.6901C59.677 13.5201 59.597 13.4501 59.417 13.4301Z" fill="#8C8C8C"/>
<path d="M66.497 18.1601L69.357 13.6301C69.3604 13.6035 69.3604 13.5767 69.357 13.5501C69.3557 13.5265 69.3498 13.5033 69.3395 13.4819C69.3293 13.4606 69.3149 13.4415 69.2973 13.4257C69.2796 13.4099 69.259 13.3977 69.2367 13.3899C69.2143 13.3821 69.1906 13.3788 69.167 13.3801H67.167C67.0965 13.3904 67.03 13.4189 66.9739 13.4627C66.9177 13.5065 66.874 13.5642 66.847 13.6301L65.217 16.2801L63.537 13.6301C63.457 13.5101 63.357 13.3801 63.207 13.3801H61.147C61.0982 13.3773 61.0502 13.3934 61.0129 13.425C60.9757 13.4567 60.952 13.5015 60.947 13.5501C60.9402 13.5763 60.9402 13.6039 60.947 13.6301L63.817 18.1301L60.977 22.8801C60.9684 22.9095 60.9684 22.9407 60.977 22.9701C60.977 23.0601 61.037 23.1401 61.177 23.1401H63.117C63.257 23.1401 63.347 23.0401 63.447 22.8801L65.087 20.0701L66.897 22.9401C66.927 23.0038 66.9755 23.0569 67.0361 23.0926C67.0968 23.1282 67.1668 23.1448 67.237 23.1401H69.327C69.427 23.1401 69.497 23.0901 69.497 23.0101C69.5072 22.9674 69.5072 22.9228 69.497 22.8801L66.497 18.1601Z" fill="#8C8C8C"/>
<path d="M44.027 13.4101H42.117C42.0688 13.4096 42.0219 13.4265 41.9852 13.4577C41.9484 13.4889 41.9242 13.5324 41.917 13.5801L40.007 20.6401C40.007 20.7801 39.947 20.8301 39.827 20.8301C39.707 20.8301 39.667 20.7801 39.647 20.6401L37.737 13.5801C37.7279 13.5333 37.7032 13.4909 37.6668 13.46C37.6305 13.4291 37.5847 13.4115 37.537 13.4101H35.657C35.6307 13.4101 35.6047 13.4153 35.5804 13.4253C35.5562 13.4354 35.5341 13.4501 35.5156 13.4687C35.497 13.4873 35.4823 13.5093 35.4722 13.5336C35.4622 13.5578 35.457 13.5838 35.457 13.6101V13.6601C35.457 13.6601 37.787 21.7501 37.817 21.8301C37.9435 22.2571 38.209 22.6297 38.5713 22.8887C38.9336 23.1478 39.372 23.2785 39.817 23.2601C40.2607 23.2791 40.6981 23.1498 41.0602 22.8927C41.4223 22.6356 41.6886 22.2653 41.817 21.8401L44.127 13.6601C44.1369 13.6371 44.1422 13.6124 44.1425 13.5874C44.1428 13.5624 44.1382 13.5376 44.1289 13.5143C44.1196 13.4911 44.1058 13.4699 44.0883 13.4521C44.0709 13.4342 44.05 13.4199 44.027 13.4101Z" fill="#8C8C8C"/>
<path d="M32.6583 8.02197H15.1883C14.8783 8.02231 14.5737 8.1027 14.3039 8.25536C14.0341 8.40801 13.8083 8.62776 13.6484 8.8933C13.4884 9.15885 13.3998 9.4612 13.391 9.77106C13.3822 10.0809 13.4536 10.3878 13.5983 10.662L15.3483 14.022H12.1783C11.8791 14.0217 11.5914 14.137 11.3752 14.3439C11.1591 14.5507 11.0312 14.8331 11.0183 15.132C11.0199 15.3195 11.0644 15.5042 11.1483 15.672L16.7683 26.312C16.8398 26.448 16.9375 26.5684 17.0559 26.6663C17.1743 26.7642 17.311 26.8376 17.458 26.8823C17.605 26.9269 17.7594 26.9419 17.9122 26.9264C18.065 26.9109 18.2133 26.8652 18.3483 26.792C18.5566 26.6889 18.7253 26.5203 18.8283 26.312L20.3583 23.442L22.2683 27.022C22.4215 27.3107 22.6505 27.5523 22.9306 27.7208C23.2107 27.8892 23.5314 27.9782 23.8583 27.9782C24.1852 27.9782 24.5059 27.8892 24.786 27.7208C25.0661 27.5523 25.2951 27.3107 25.4483 27.022L34.2083 10.542C34.3383 10.2768 34.399 9.98306 34.3849 9.68809C34.3707 9.39313 34.2822 9.10653 34.1275 8.855C33.9728 8.60347 33.7569 8.39518 33.5 8.24952C33.2432 8.10387 32.9536 8.02559 32.6583 8.02197ZM24.8083 15.022L21.0183 22.172C20.9208 22.3529 20.7557 22.488 20.5591 22.5479C20.3625 22.6079 20.1502 22.5877 19.9683 22.492C19.8337 22.4174 19.7228 22.3065 19.6483 22.172L15.9083 15.092C15.8439 14.9744 15.8113 14.842 15.8137 14.7079C15.8162 14.5738 15.8536 14.4427 15.9223 14.3275C15.991 14.2123 16.0886 14.1171 16.2054 14.0512C16.3222 13.9854 16.4542 13.9511 16.5883 13.952H24.1283C24.3281 13.9546 24.5189 14.0358 24.6593 14.1781C24.7996 14.3203 24.8783 14.5121 24.8783 14.712C24.878 14.8192 24.8541 14.925 24.8083 15.022Z" fill="#8C8C8C"/>
</svg>
